<?xml version="1.0" standalone="no"?>
<!DOCTYPE svg PUBLIC "-//W3C//DTD SVG 20010904//EN"
 "http://www.w3.org/TR/2001/REC-SVG-20010904/DTD/svg10.dtd">
<svg version="1.0" xmlns="http://www.w3.org/2000/svg"
 width="322.000000pt" height="313.000000pt" viewBox="0 0 322.000000 313.000000"
 preserveAspectRatio="xMidYMid meet">

<g transform="translate(0.000000,313.000000) scale(0.100000,-0.100000)"
fill="#000000" stroke="none">
<path d="M1460 3064 c-94 -12 -214 -38 -300 -66 -450 -144 -812 -500 -964
-948 -99 -293 -102 -641 -6 -940 16 -52 34 -101 38 -108 6 -9 71 24 254 129
l246 141 -19 71 c-29 108 -35 272 -15 385 57 327 294 610 604 722 460 166 971
-50 1173 -496 16 -35 29 -70 29 -77 0 -8 -188 -122 -422 -258 -743 -427 -813
-469 -813 -480 0 -17 122 -88 185 -107 39 -12 89 -17 175 -17 132 1 190 17
305 85 57 34 715 414 1000 578 91 52 167 96 169 98 10 9 -24 158 -59 265 -77
232 -183 403 -364 585 -219 219 -469 355 -764 415 -95 19 -371 33 -452 23z"/>
<path d="M1478 2115 c-189 -48 -346 -204 -403 -400 -16 -55 -25 -229 -12 -241
3 -3 135 69 294 161 158 92 363 211 455 264 92 53 168 98 168 101 0 11 -119
79 -175 100 -77 29 -242 37 -327 15z"/>
<path d="M2910 1236 c-461 -270 -852 -493 -917 -523 -328 -152 -743 -81 -1012
172 l-66 63 -240 -138 c-132 -76 -241 -143 -243 -148 -5 -16 104 -138 195
-217 204 -179 447 -297 718 -351 128 -26 404 -26 540 0 527 99 968 473 1145
971 26 74 69 238 70 268 0 13 -12 6 -190 -97z"/>
</g>
</svg>
