<?xml version="1.0" encoding="utf-8"?>
<!-- Generator: Adobe Illustrator 21.1.0, SVG Export Plug-In . SVG Version: 6.00 Build 0)  -->
<svg version="1.1" id="Layer_1" xmlns="http://www.w3.org/2000/svg" xmlns:xlink="http://www.w3.org/1999/xlink" x="0px" y="0px"
	 viewBox="0 0 142 35" style="enable-background:new 0 0 142 35;" xml:space="preserve">
<style type="text/css">
	.st0{fill:#231F20;}
</style>
<g>
	<path class="st0" d="M11.7,6.1l2.5,5.9h0.2c0.2-0.7,0.5-1.4,0.8-2.1l1.6-3.8h9.2L18.4,19v9.8h-8V19L2.4,6.1H11.7z"/>
	<path class="st0" d="M27.6,6.1h15.2v6.2h-6.9v2.2h6.3v5.9h-6.3v2.2H43v6.2H27.6V6.1z"/>
	<path class="st0" d="M46.5,6.1h8.4c7.6,0,13.4,3.3,13.4,11.6c0,6.7-4.7,11-11.4,11H46.5V6.1z M54.7,22h0.5c2.7,0,4.8-1.3,4.8-4.2
		c0-3.2-1.8-4.5-4.8-4.5h-0.5V22z"/>
	<path class="st0" d="M72.6,20.6L73,21c1.5,1.1,3.2,2.1,5.1,2.1c0.8,0,2.1-0.3,2.1-1.3c0-1-1.1-1.1-1.8-1.3l-1.7-0.3
		c-3.2-0.6-5.9-2.5-5.9-6c0-5.4,4.9-8.4,9.8-8.4c2.6,0,4.9,0.6,7.2,2l-2.2,5.8c-1.4-1-3-1.7-4.8-1.7c-0.7,0-1.8,0.3-1.8,1.2
		c0,0.8,1,1,1.6,1.1l1.9,0.4c3.5,0.8,6,2.6,6,6.5c0,5.4-4.9,8.1-9.8,8.1c-2.8,0-6.1-0.8-8.7-2.1L72.6,20.6z"/>
	<path class="st0" d="M97.8,28.7h-8.7l7.9-22.6h9.1l8.1,22.6h-8.7l-0.8-2.8h-6.2L97.8,28.7z M103.2,20.5l-1-4c-0.2-1-0.4-2-0.5-2.9
		h-0.3l-1.5,6.9H103.2z"/>
	<path class="st0" d="M115.7,6.1h7.9l7.4,12.5h0.2c-0.3-1.9-0.7-3.8-0.7-5.8V6.1h7.9v22.6h-7.9l-7.2-11.9H123c0.3,1.6,0.5,3,0.5,4.5
		v7.3h-7.9V6.1z"/>
</g>
</svg>
